<svg xmlns="http://www.w3.org/2000/svg" xmlns:xlink="http://www.w3.org/1999/xlink" width="1770" zoomAndPan="magnify" viewBox="0 0 1327.5 493.49999" height="658" preserveAspectRatio="xMidYMid meet" version="1.0"><defs><g/><clipPath id="3e88ab110b"><path d="M 22 119.988281 L 231 119.988281 L 231 222 L 22 222 Z M 22 119.988281 " clip-rule="nonzero"/></clipPath><clipPath id="be180c64ee"><path d="M 0.832031 216 L 252.574219 216 L 252.574219 308.617188 L 0.832031 308.617188 Z M 0.832031 216 " clip-rule="nonzero"/></clipPath><clipPath id="b608f057f7"><path d="M 22 302.464844 L 230.46875 302.464844 L 230.46875 372.480469 L 22 372.480469 Z M 22 302.464844 " clip-rule="nonzero"/></clipPath><clipPath id="309981e666"><rect x="0" width="943" y="0" height="323"/></clipPath></defs><g clip-path="url(#3e88ab110b)"><path fill="#000000" d="M 230.46875 170.875 L 126.71875 119.988281 L 22.945312 170.875 L 126.71875 221.765625 L 230.46875 170.875 " fill-opacity="1" fill-rule="nonzero"/></g><g clip-path="url(#be180c64ee)"><path fill="#545454" d="M 252.574219 246.3125 L 191.214844 216.214844 L 126.71875 247.84375 L 62.191406 216.214844 L 0.832031 246.3125 L 126.71875 308.054688 L 252.574219 246.3125 " fill-opacity="1" fill-rule="nonzero"/></g><g clip-path="url(#b608f057f7)"><path fill="#000000" d="M 126.703125 334.132812 L 62.199219 302.480469 L 22.953125 321.734375 L 126.703125 372.625 L 230.453125 321.734375 L 191.207031 302.480469 L 126.703125 334.132812 " fill-opacity="1" fill-rule="nonzero"/></g><g transform="matrix(1, 0, 0, 1, 295, 85)"><g clip-path="url(#309981e666)"><g fill="#000000" fill-opacity="1"><g transform="translate(0.0994388, 241.814999)"><g><path d="M 75.765625 0 L 1.578125 -185.21875 L 38.40625 -185.21875 L 88.34375 -54 L 138.03125 -185.21875 L 174.46875 -185.21875 L 100.671875 0 Z M 75.765625 0 "/></g></g></g><g fill="#000000" fill-opacity="1"><g transform="translate(191.439898, 241.814999)"><g><path d="M 23.859375 0 L 23.859375 -185.21875 L 147.078125 -185.21875 L 147.078125 -154.671875 L 57.15625 -154.671875 L 57.15625 -107.875 L 140.90625 -107.875 L 140.90625 -77.34375 L 57.15625 -77.34375 L 57.15625 -31.453125 L 147.078125 -31.453125 L 147.078125 0 Z M 23.859375 0 "/></g></g></g><g fill="#000000" fill-opacity="1"><g transform="translate(369.934692, 241.814999)"><g><path d="M 23.859375 0 L 23.859375 -185.21875 L 57.15625 -185.21875 L 57.15625 -88.609375 L 147.328125 -185.21875 L 191.90625 -185.21875 L 117.84375 -109.328125 L 193.34375 0 L 151.921875 0 L 94.765625 -87.03125 L 57.15625 -48.109375 L 57.15625 0 Z M 23.859375 0 "/></g></g></g><g fill="#000000" fill-opacity="1"><g transform="translate(580.674735, 241.814999)"><g><path d="M 60.6875 0 L 60.6875 -155.46875 L 2.625 -155.46875 L 2.625 -185.21875 L 151.921875 -185.21875 L 151.921875 -155.46875 L 93.984375 -155.46875 L 93.984375 0 Z M 60.6875 0 "/></g></g></g><g fill="#000000" fill-opacity="1"><g transform="translate(750.649419, 241.814999)"><g><path d="M 1.578125 0 L 75.765625 -185.21875 L 100.671875 -185.21875 L 174.46875 0 L 138.546875 0 L 124.265625 -40.234375 L 52.296875 -40.234375 L 37.875 0 Z M 63.578125 -68.6875 L 112.984375 -68.6875 L 88.34375 -136.328125 Z M 63.578125 -68.6875 "/></g></g></g></g></g></svg>
