<svg xmlns="http://www.w3.org/2000/svg" xmlns:xlink="http://www.w3.org/1999/xlink" width="2000" zoomAndPan="magnify" viewBox="0 0 1500 1499.999933" height="2000" preserveAspectRatio="xMidYMid meet" version="1.0"><defs><clipPath id="ec6c716e15"><path d="M 309 176.113281 L 1191 176.113281 L 1191 609 L 309 609 Z M 309 176.113281 " clip-rule="nonzero"/></clipPath><clipPath id="8c61ebd027"><path d="M 215.277344 584 L 1284.550781 584 L 1284.550781 975 L 215.277344 975 Z M 215.277344 584 " clip-rule="nonzero"/></clipPath><clipPath id="7747f7f832"><path d="M 309 951.195312 L 1190.660156 951.195312 L 1190.660156 1249.199219 L 309 1249.199219 Z M 309 951.195312 " clip-rule="nonzero"/></clipPath></defs><g clip-path="url(#ec6c716e15)"><path fill="#545454" d="M 1190.660156 392.269531 L 749.980469 176.113281 L 309.203125 392.269531 L 749.980469 608.425781 L 1190.660156 392.269531 " fill-opacity="1" fill-rule="nonzero"/></g><g clip-path="url(#8c61ebd027)"><path fill="#000000" d="M 1284.550781 712.691406 L 1023.933594 584.847656 L 749.980469 719.1875 L 475.894531 584.847656 L 215.277344 712.691406 L 749.980469 974.941406 L 1284.550781 712.691406 " fill-opacity="1" fill-rule="nonzero"/></g><g clip-path="url(#7747f7f832)"><path fill="#545454" d="M 749.914062 1085.707031 L 475.929688 951.265625 L 309.238281 1033.046875 L 749.914062 1249.199219 L 1190.59375 1033.046875 L 1023.902344 951.265625 L 749.914062 1085.707031 " fill-opacity="1" fill-rule="nonzero"/></g></svg>
