<svg xmlns="http://www.w3.org/2000/svg" xmlns:xlink="http://www.w3.org/1999/xlink" viewBox="140 620 1190 265" preserveAspectRatio="xMidYMid meet" version="1.0"><defs><g/><clipPath id="978a3b6c4e"><path d="M 157.09375 712 L 232 712 L 232 790 L 157.09375 790 Z M 157.09375 712 " clip-rule="nonzero"/></clipPath><clipPath id="34e4a24ebe"><path d="M 231 634.859375 L 310 634.859375 L 310 713 L 231 713 Z M 231 634.859375 " clip-rule="nonzero"/></clipPath><clipPath id="c7d33206d5"><path d="M 309 712 L 386.59375 712 L 386.59375 790 L 309 790 Z M 309 712 " clip-rule="nonzero"/></clipPath><clipPath id="be8c6a6069"><path d="M 231 789 L 310 789 L 310 865.109375 L 231 865.109375 Z M 231 789 " clip-rule="nonzero"/></clipPath><clipPath id="abc8c8ea76"><rect x="0" width="900" y="0" height="304"/></clipPath></defs><g clip-path="url(#978a3b6c4e)"><path fill="#ffffff" d="M 154.5 712.332031 L 231.96875 712.332031 L 231.96875 789.796875 L 154.5 789.796875 Z M 154.5 712.332031 " fill-opacity="1" fill-rule="nonzero"/></g><g clip-path="url(#34e4a24ebe)"><path fill="#ffffff" d="M 231.96875 634.863281 L 309.433594 634.863281 L 309.433594 712.332031 L 231.96875 712.332031 Z M 231.96875 634.863281 " fill-opacity="1" fill-rule="nonzero"/></g><g clip-path="url(#c7d33206d5)"><path fill="#ffffff" d="M 309.433594 712.332031 L 386.898438 712.332031 L 386.898438 789.796875 L 309.433594 789.796875 Z M 309.433594 712.332031 " fill-opacity="1" fill-rule="nonzero"/></g><g clip-path="url(#be8c6a6069)"><path fill="#ffffff" d="M 231.96875 789.804688 L 309.433594 789.804688 L 309.433594 867.273438 L 231.96875 867.273438 Z M 231.96875 789.804688 " fill-opacity="1" fill-rule="nonzero"/></g><g transform="matrix(1, 0, 0, 1, 419, 598)"><g clip-path="url(#abc8c8ea76)"><g fill="#ffffff" fill-opacity="1"><g transform="translate(0.228215, 240.98617)"><g><path d="M 72.703125 0 L 6.953125 -178.671875 L 40.703125 -178.671875 L 94.546875 -22.828125 L 89.09375 -22.828125 L 142.9375 -178.671875 L 174.953125 -178.671875 L 109.4375 0 Z M 72.703125 0 "/></g></g></g><g fill="#ffffff" fill-opacity="1"><g transform="translate(189.566184, 240.98617)"><g><path d="M 15.390625 0 L 15.390625 -178.671875 L 47.640625 -178.671875 L 47.640625 0 Z M 30.765625 0 L 30.765625 -25.5625 L 143.9375 -25.5625 L 143.9375 0 Z M 30.765625 -79.40625 L 30.765625 -104.46875 L 135.25 -104.46875 L 135.25 -79.40625 Z M 30.765625 -153.109375 L 30.765625 -178.671875 L 141.203125 -178.671875 L 141.203125 -153.109375 Z M 30.765625 -153.109375 "/></g></g></g><g fill="#ffffff" fill-opacity="1"><g transform="translate(353.344748, 240.98617)"><g><path d="M 15.390625 0 L 15.390625 -178.671875 L 47.640625 -178.671875 L 47.640625 0 Z M 38.71875 -92.8125 L 123.328125 -178.671875 L 166.765625 -178.671875 L 78.671875 -92.8125 Z M 127.296875 0 L 38.21875 -92.8125 L 78.671875 -92.8125 L 171.71875 0 Z M 127.296875 0 "/></g></g></g><g fill="#ffffff" fill-opacity="1"><g transform="translate(537.471518, 240.98617)"><g><path d="M 66.25 0 L 66.25 -153.109375 L 6.953125 -153.109375 L 6.953125 -178.671875 L 157.828125 -178.671875 L 157.828125 -153.109375 L 98.515625 -153.109375 L 98.515625 0 Z M 66.25 0 "/></g></g></g><g fill="#ffffff" fill-opacity="1"><g transform="translate(709.687185, 240.98617)"><g><path d="M 6.953125 0 L 72.703125 -178.671875 L 100.5 -178.671875 L 38.71875 0 Z M 141.703125 0 L 80.15625 -178.671875 L 109.4375 -178.671875 L 174.953125 0 Z M 40.953125 -70.234375 L 138.71875 -70.234375 L 138.71875 -44.421875 L 40.953125 -44.421875 Z M 40.953125 -70.234375 "/></g></g></g></g></g></svg>
