<svg xmlns="http://www.w3.org/2000/svg" xmlns:xlink="http://www.w3.org/1999/xlink" width="1500" zoomAndPan="magnify" viewBox="0 0 1125 385.499984" height="514" preserveAspectRatio="xMidYMid meet" version="1.0"><defs><g/></defs><path fill="#ffffff" d="M 35.636719 243.148438 L 37.617188 245.109375 L 37.8125 245.308594 C 43.976562 251.6875 43.910156 261.964844 37.617188 268.257812 C 31.320312 274.554688 21.042969 274.621094 14.664062 268.457031 L 14.464844 268.257812 L 12.484375 266.300781 L 7.09375 260.886719 C 0.730469 254.527344 0.730469 244.117188 7.09375 237.738281 C 13.453125 231.375 23.882812 231.375 30.242188 237.738281 Z M 144.832031 153.582031 L 146.746094 151.667969 L 148.949219 149.46875 L 169.128906 129.285156 C 175.488281 122.925781 175.488281 112.519531 169.128906 106.136719 C 162.746094 99.777344 152.335938 99.777344 145.976562 106.136719 L 123.597656 128.515625 L 121.679688 130.429688 L 110.105469 142.007812 C 103.746094 148.367188 103.746094 158.777344 110.105469 165.15625 L 121.679688 176.734375 L 123.75 178.78125 L 146.132812 201.160156 C 152.492188 207.519531 162.898438 207.519531 169.28125 201.160156 C 175.640625 194.800781 175.640625 184.371094 169.28125 178.011719 L 146.902344 155.628906 Z M 8.015625 106.289062 L 8.015625 106.269531 C 14.375 99.90625 24.808594 99.90625 31.167969 106.269531 L 168.972656 244.097656 C 175.355469 250.457031 175.355469 260.886719 168.972656 267.246094 C 162.613281 273.605469 152.203125 273.605469 145.824219 267.246094 L 8.015625 129.417969 C 1.65625 123.058594 1.65625 112.648438 8.015625 106.289062 Z M 7.820312 172.265625 C 14.179688 165.90625 24.585938 165.90625 30.96875 172.265625 L 102.996094 244.292969 C 109.359375 250.65625 109.359375 261.085938 102.996094 267.445312 C 96.617188 273.804688 86.207031 273.804688 79.847656 267.445312 L 57.464844 245.066406 L 23.507812 211.109375 L 7.820312 195.417969 C 1.457031 189.058594 1.457031 178.625 7.820312 172.265625 Z M 7.820312 172.265625 " fill-opacity="1" fill-rule="evenodd"/><g fill="#ffffff" fill-opacity="1"><g transform="translate(223.237437, 255.363689)"><g><path d="M 59.203125 0 L 1.234375 -144.71875 L 30.015625 -144.71875 L 69.03125 -42.203125 L 107.859375 -144.71875 L 136.328125 -144.71875 L 78.65625 0 Z M 59.203125 0 "/></g></g></g><g fill="#ffffff" fill-opacity="1"><g transform="translate(372.74528, 255.363689)"><g><path d="M 18.640625 0 L 18.640625 -144.71875 L 114.921875 -144.71875 L 114.921875 -120.859375 L 44.65625 -120.859375 L 44.65625 -84.296875 L 110.109375 -84.296875 L 110.109375 -60.4375 L 44.65625 -60.4375 L 44.65625 -24.578125 L 114.921875 -24.578125 L 114.921875 0 Z M 18.640625 0 "/></g></g></g><g fill="#ffffff" fill-opacity="1"><g transform="translate(512.215895, 255.363689)"><g><path d="M 18.640625 0 L 18.640625 -144.71875 L 44.65625 -144.71875 L 44.65625 -69.234375 L 115.125 -144.71875 L 149.953125 -144.71875 L 92.078125 -85.421875 L 151.078125 0 L 118.703125 0 L 74.046875 -68.015625 L 44.65625 -37.59375 L 44.65625 0 Z M 18.640625 0 "/></g></g></g><g fill="#ffffff" fill-opacity="1"><g transform="translate(676.882006, 255.363689)"><g><path d="M 47.421875 0 L 47.421875 -121.46875 L 2.046875 -121.46875 L 2.046875 -144.71875 L 118.703125 -144.71875 L 118.703125 -121.46875 L 73.4375 -121.46875 L 73.4375 0 Z M 47.421875 0 "/></g></g></g><g fill="#ffffff" fill-opacity="1"><g transform="translate(809.695257, 255.363689)"><g><path d="M 1.234375 0 L 59.203125 -144.71875 L 78.65625 -144.71875 L 136.328125 0 L 108.265625 0 L 97.09375 -31.4375 L 40.875 -31.4375 L 29.59375 0 Z M 49.671875 -53.671875 L 88.296875 -53.671875 L 69.03125 -106.515625 Z M 49.671875 -53.671875 "/></g></g></g></svg>