<svg xmlns="http://www.w3.org/2000/svg" xmlns:xlink="http://www.w3.org/1999/xlink" width="1756" zoomAndPan="magnify" viewBox="0 0 1317 493.49999" height="658" preserveAspectRatio="xMidYMid meet" version="1.0"><defs><g/><clipPath id="b5f3cf3a67"><path d="M 0.585938 44 L 221 44 L 221 265 L 0.585938 265 Z M 0.585938 44 " clip-rule="nonzero"/></clipPath><clipPath id="06a980f4e0"><rect x="0" width="1226" y="0" height="323"/></clipPath></defs><g transform="matrix(1, 0, 0, 1, 2, 85)"><g clip-path="url(#06a980f4e0)"><g clip-path="url(#b5f3cf3a67)"><path fill="#0a0a0a" d="M 43.339844 226.183594 L 45.875 228.691406 L 46.128906 228.945312 C 54.015625 237.113281 53.929688 250.265625 45.875 258.320312 C 37.820312 266.375 24.667969 266.457031 16.5 258.574219 L 16.246094 258.320312 L 13.710938 255.8125 L 6.8125 248.882812 C -1.328125 240.746094 -1.328125 227.421875 6.8125 219.253906 C 14.949219 211.117188 28.300781 211.117188 36.441406 219.253906 Z M 183.089844 111.554688 L 185.542969 109.105469 L 188.359375 106.289062 L 214.183594 80.460938 C 222.324219 72.324219 222.324219 59 214.183594 50.832031 C 206.015625 42.695312 192.695312 42.695312 184.554688 50.832031 L 158.730469 76.660156 L 155.914062 79.476562 L 153.460938 81.925781 L 138.648438 96.742188 C 130.507812 104.878906 130.507812 118.203125 138.648438 126.371094 L 153.460938 141.183594 L 156.109375 143.804688 L 184.753906 172.445312 C 192.890625 180.585938 206.214844 180.585938 214.382812 172.445312 C 222.519531 164.308594 222.519531 150.957031 214.382812 142.816406 L 185.738281 114.175781 Z M 7.992188 51.03125 L 7.992188 51 C 16.132812 42.863281 29.484375 42.863281 37.621094 51 L 213.988281 227.394531 C 222.15625 235.535156 222.15625 248.882812 213.988281 257.023438 C 205.847656 265.164062 192.527344 265.164062 184.359375 257.023438 L 7.992188 80.628906 C -0.144531 72.492188 -0.144531 59.167969 7.992188 51.03125 Z M 7.738281 135.464844 C 15.878906 127.328125 29.203125 127.328125 37.367188 135.464844 L 129.550781 227.648438 C 137.691406 235.789062 137.691406 249.136719 129.550781 257.277344 C 121.382812 265.417969 108.0625 265.417969 99.921875 257.277344 L 7.738281 165.09375 C -0.398438 156.957031 -0.398438 143.605469 7.738281 135.464844 Z M 7.738281 135.464844 " fill-opacity="1" fill-rule="evenodd"/></g><g fill="#0a0a0a" fill-opacity="1"><g transform="translate(283.433728, 241.814999)"><g><path d="M 75.765625 0 L 1.578125 -185.21875 L 38.40625 -185.21875 L 88.34375 -54 L 138.03125 -185.21875 L 174.46875 -185.21875 L 100.671875 0 Z M 75.765625 0 "/></g></g></g><g fill="#0a0a0a" fill-opacity="1"><g transform="translate(474.774187, 241.814999)"><g><path d="M 23.859375 0 L 23.859375 -185.21875 L 147.078125 -185.21875 L 147.078125 -154.671875 L 57.15625 -154.671875 L 57.15625 -107.875 L 140.90625 -107.875 L 140.90625 -77.34375 L 57.15625 -77.34375 L 57.15625 -31.453125 L 147.078125 -31.453125 L 147.078125 0 Z M 23.859375 0 "/></g></g></g><g fill="#0a0a0a" fill-opacity="1"><g transform="translate(653.26898, 241.814999)"><g><path d="M 23.859375 0 L 23.859375 -185.21875 L 57.15625 -185.21875 L 57.15625 -88.609375 L 147.328125 -185.21875 L 191.90625 -185.21875 L 117.84375 -109.328125 L 193.34375 0 L 151.921875 0 L 94.765625 -87.03125 L 57.15625 -48.109375 L 57.15625 0 Z M 23.859375 0 "/></g></g></g><g fill="#0a0a0a" fill-opacity="1"><g transform="translate(864.009024, 241.814999)"><g><path d="M 60.6875 0 L 60.6875 -155.46875 L 2.625 -155.46875 L 2.625 -185.21875 L 151.921875 -185.21875 L 151.921875 -155.46875 L 93.984375 -155.46875 L 93.984375 0 Z M 60.6875 0 "/></g></g></g><g fill="#0a0a0a" fill-opacity="1"><g transform="translate(1033.983708, 241.814999)"><g><path d="M 1.578125 0 L 75.765625 -185.21875 L 100.671875 -185.21875 L 174.46875 0 L 138.546875 0 L 124.265625 -40.234375 L 52.296875 -40.234375 L 37.875 0 Z M 63.578125 -68.6875 L 112.984375 -68.6875 L 88.34375 -136.328125 Z M 63.578125 -68.6875 "/></g></g></g></g></g></svg>