<svg xmlns="http://www.w3.org/2000/svg" viewBox="292 70 980 360" preserveAspectRatio="xMinYMid meet">
  <defs>
    <clipPath id="vektaHeroWordClip"><rect x="0" width="943" y="0" height="323"/></clipPath>
  </defs>
  <g transform="translate(295, 85)">
    <g clip-path="url(#vektaHeroWordClip)">
      <g fill="#ffffff" fill-opacity="1">
        <g transform="translate(0.0994388, 241.814999)">
          <path d="M 75.765625 0 L 1.578125 -185.21875 L 38.40625 -185.21875 L 88.34375 -54 L 138.03125 -185.21875 L 174.46875 -185.21875 L 100.671875 0 Z M 75.765625 0 " />
        </g>
      </g>
      <g fill="#ffffff" fill-opacity="1">
        <g transform="translate(191.439898, 241.814999)">
          <path d="M 23.859375 0 L 23.859375 -185.21875 L 147.078125 -185.21875 L 147.078125 -154.671875 L 57.15625 -154.671875 L 57.15625 -107.875 L 140.90625 -107.875 L 140.90625 -77.34375 L 57.15625 -77.34375 L 57.15625 -31.453125 L 147.078125 -31.453125 L 147.078125 0 Z M 23.859375 0 " />
        </g>
      </g>
      <g fill="#ffffff" fill-opacity="1">
        <g transform="translate(369.934692, 241.814999)">
          <path d="M 23.859375 0 L 23.859375 -185.21875 L 57.15625 -185.21875 L 57.15625 -88.609375 L 147.328125 -185.21875 L 191.90625 -185.21875 L 117.84375 -109.328125 L 193.34375 0 L 151.921875 0 L 94.765625 -87.03125 L 57.15625 -48.109375 L 57.15625 0 Z M 23.859375 0 " />
        </g>
      </g>
      <g fill="#ffffff" fill-opacity="1">
        <g transform="translate(580.674735, 241.814999)">
          <path d="M 60.6875 0 L 60.6875 -155.46875 L 2.625 -155.46875 L 2.625 -185.21875 L 151.921875 -185.21875 L 151.921875 -155.46875 L 93.984375 -155.46875 L 93.984375 0 Z M 60.6875 0 " />
        </g>
      </g>
      <g fill="#ffffff" fill-opacity="1">
        <g transform="translate(750.649419, 241.814999)">
          <path d="M 1.578125 0 L 75.765625 -185.21875 L 100.671875 -185.21875 L 174.46875 0 L 138.546875 0 L 124.265625 -40.234375 L 52.296875 -40.234375 L 37.875 0 Z M 63.578125 -68.6875 L 112.984375 -68.6875 L 88.34375 -136.328125 Z M 63.578125 -68.6875 " />
        </g>
      </g>
    </g>
  </g>
</svg>
