<svg xmlns="http://www.w3.org/2000/svg" xmlns:xlink="http://www.w3.org/1999/xlink" width="926" zoomAndPan="magnify" viewBox="0 0 694.5 290.250005" height="387" preserveAspectRatio="xMidYMid meet" version="1.0"><defs><g/><clipPath id="ad16707f00"><path d="M 0.644531 0 L 693.355469 0 L 693.355469 289.5 L 0.644531 289.5 Z M 0.644531 0 " clip-rule="nonzero"/></clipPath><clipPath id="6ebc81f755"><path d="M 0.644531 81 L 124 81 L 124 206 L 0.644531 206 Z M 0.644531 81 " clip-rule="nonzero"/></clipPath><clipPath id="21dfaaca49"><path d="M 0.859375 1.726562 L 123.058594 1.726562 L 123.058594 123.925781 L 0.859375 123.925781 Z M 0.859375 1.726562 " clip-rule="nonzero"/></clipPath><clipPath id="56dffc6989"><path d="M 0.859375 0.726562 L 123.058594 0.726562 L 123.058594 122.925781 L 0.859375 122.925781 Z M 0.859375 0.726562 " clip-rule="nonzero"/></clipPath><clipPath id="2a00c058d0"><rect x="0" width="124" y="0" height="123"/></clipPath><clipPath id="16dcd70054"><path d="M 17.464844 17.515625 L 106.457031 17.515625 L 106.457031 108.136719 L 17.464844 108.136719 Z M 17.464844 17.515625 " clip-rule="nonzero"/></clipPath><clipPath id="9409edf2e3"><path d="M 0.464844 0.515625 L 89.457031 0.515625 L 89.457031 91.136719 L 0.464844 91.136719 Z M 0.464844 0.515625 " clip-rule="nonzero"/></clipPath><clipPath id="0f043c29a5"><rect x="0" width="90" y="0" height="92"/></clipPath><clipPath id="6ebee429b9"><path d="M 74.019531 73 L 106.460938 73 L 106.460938 123.921875 L 74.019531 123.921875 Z M 74.019531 73 " clip-rule="nonzero"/></clipPath><clipPath id="6f34200101"><path d="M 74.019531 98.496094 L 106.460938 73.070312 L 106.460938 123.921875 Z M 74.019531 98.496094 " clip-rule="nonzero"/></clipPath><clipPath id="bcd25a7946"><path d="M 0.0195312 0 L 32.460938 0 L 32.460938 50.921875 L 0.0195312 50.921875 Z M 0.0195312 0 " clip-rule="nonzero"/></clipPath><clipPath id="a49620b0ab"><path d="M 0.0195312 25.496094 L 32.460938 0.0703125 L 32.460938 50.921875 Z M 0.0195312 25.496094 " clip-rule="nonzero"/></clipPath><clipPath id="b07b8a390c"><rect x="0" width="33" y="0" height="51"/></clipPath><clipPath id="ca807804cd"><path d="M 0.644531 0.910156 L 17.753906 0.910156 L 17.753906 17.207031 L 0.644531 17.207031 Z M 0.644531 0.910156 " clip-rule="nonzero"/></clipPath><clipPath id="cf55b3a63c"><path d="M 0.644531 1.21875 L 17.460938 1.21875 L 17.460938 17.207031 L 0.644531 17.207031 Z M 0.644531 1.21875 " clip-rule="nonzero"/></clipPath><clipPath id="76427c9dbc"><rect x="0" width="18" y="0" height="18"/></clipPath><clipPath id="42e4bed404"><path d="M 106.457031 108.136719 L 123.449219 108.136719 L 123.449219 124.429688 L 106.457031 124.429688 Z M 106.457031 108.136719 " clip-rule="nonzero"/></clipPath><clipPath id="1985f0d9d9"><rect x="0" width="124" y="0" height="125"/></clipPath></defs><g clip-path="url(#ad16707f00)"><path fill="#ffffff" d="M 0.644531 0 L 693.355469 0 L 693.355469 289.5 L 0.644531 289.5 Z M 0.644531 0 " fill-opacity="1" fill-rule="nonzero"/></g><g clip-path="url(#6ebc81f755)"><g transform="matrix(1, 0, 0, 1, 0.000000000000000111, 81)"><g clip-path="url(#1985f0d9d9)"><g clip-path="url(#21dfaaca49)"><g transform="matrix(1, 0, 0, 1, 0.000000000000000111, 1)"><g clip-path="url(#2a00c058d0)"><g clip-path="url(#56dffc6989)"><path fill="#171717" d="M 0.859375 0.726562 L 123.058594 0.726562 L 123.058594 122.925781 L 0.859375 122.925781 Z M 0.859375 0.726562 " fill-opacity="1" fill-rule="nonzero"/></g></g></g></g><g clip-path="url(#16dcd70054)"><g transform="matrix(1, 0, 0, 1, 17, 17)"><g clip-path="url(#0f043c29a5)"><g clip-path="url(#9409edf2e3)"><path fill="#ffffff" d="M 0.464844 0.515625 L 89.457031 0.515625 L 89.457031 91.246094 L 0.464844 91.246094 Z M 0.464844 0.515625 " fill-opacity="1" fill-rule="nonzero"/></g></g></g></g><g clip-path="url(#6ebee429b9)"><g clip-path="url(#6f34200101)"><g transform="matrix(1, 0, 0, 1, 74, 73)"><g clip-path="url(#b07b8a390c)"><g clip-path="url(#bcd25a7946)"><g clip-path="url(#a49620b0ab)"><path fill="#ffffff" d="M 0.0195312 50.921875 L 0.0195312 0.109375 L 32.460938 0.109375 L 32.460938 50.921875 Z M 0.0195312 50.921875 " fill-opacity="1" fill-rule="nonzero"/></g></g></g></g></g></g><g clip-path="url(#ca807804cd)"><g transform="matrix(1, 0, 0, 1, 0.000000000000000111, -0.000000000000014211)"><g clip-path="url(#76427c9dbc)"><g clip-path="url(#cf55b3a63c)"><path fill="#ffffff" d="M 17.460938 0.925781 L 0.648438 17.492188 L 0.648438 0.925781 Z M 17.460938 0.925781 " fill-opacity="1" fill-rule="nonzero"/></g></g></g></g><g clip-path="url(#42e4bed404)"><path fill="#ffffff" d="M 106.457031 124.722656 L 123.269531 108.15625 L 123.269531 124.722656 Z M 106.457031 124.722656 " fill-opacity="1" fill-rule="nonzero"/></g></g></g></g><g fill="#171717" fill-opacity="1"><g transform="translate(155.08676, 199.939308)"><g><path d="M 44.6875 0 L 1.453125 -112.5 L 28.921875 -112.5 L 43.875 -72.484375 L 57.375 -36.796875 L 85.65625 -112.5 L 112.984375 -112.5 L 69.75 0 Z M 44.6875 0 "/></g></g></g><g fill="#171717" fill-opacity="1"><g transform="translate(277.071847, 199.939308)"><g><path d="M 42.90625 0 L 42.90625 -39.375 L 1.453125 -112.5 L 30.53125 -112.5 L 44.515625 -86.46875 L 55.765625 -66.0625 L 66.859375 -86.46875 L 80.6875 -112.5 L 109.765625 -112.5 L 68.46875 -39.703125 L 68.46875 0 Z M 42.90625 0 "/></g></g></g><g fill="#171717" fill-opacity="1"><g transform="translate(395.842583, 199.939308)"><g><path d="M 40.5 0 L 40.5 -88.5625 L 4.828125 -88.5625 L 4.828125 -112.5 L 101.734375 -112.5 L 101.734375 -88.5625 L 66.0625 -88.5625 L 66.0625 0 Z M 40.5 0 "/></g></g></g><g fill="#171717" fill-opacity="1"><g transform="translate(509.9525, 199.939308)"><g><path d="M 1.453125 0 L 46.125 -112.5 L 71.203125 -112.5 L 115.875 0 L 88.5625 0 L 81 -19.453125 L 36.328125 -19.453125 L 28.765625 0 Z M 42.90625 -39.53125 L 74.578125 -39.53125 L 58.65625 -80.6875 Z M 42.90625 -39.53125 "/></g></g></g></svg>